<svg width="48" height="48" viewBox="0 0 48 48" fill="none" xmlns="http://www.w3.org/2000/svg">
    <g clip-path="url(#clip0_14_1133)">
        <rect width="48" height="48" rx="8" fill="white"/>
        <rect width="48" height="48" rx="8" fill="#0866FF"/>
        <path d="M33.1475 32.4496L34.4944 25.1152H26.655V22.5213C26.655 18.6458 28.1757 17.1549 32.1107 17.1549C33.3328 17.1549 34.3168 17.1846 34.8832 17.2442V10.5962C33.8099 10.2976 31.1862 10 29.6656 10C21.6458 10 17.9488 13.7862 17.9488 21.9549V25.1152H13V32.4496H17.9488V48.4086C19.8054 48.8694 21.7475 49.1152 23.7462 49.1152C24.7302 49.1152 25.7008 49.0547 26.6541 48.9395V32.4496H33.1466H33.1475Z" fill="white"/>
    </g>
    <defs>
        <clipPath id="clip0_14_1133">
            <rect width="48" height="48" rx="8" fill="white"/>
        </clipPath>
    </defs>
</svg>
